<svg width="683" height="599" viewBox="0 0 683 599" fill="none" xmlns="http://www.w3.org/2000/svg">
<path d="M477 324.943C477 378.907 438.712 425.013 368.837 437.147V499H309.296V441.439C268.559 439.592 229.086 428.642 206 415.34L224.235 344.335C249.755 358.315 285.593 371.049 325.098 371.049C359.719 371.049 383.422 357.668 383.422 333.416C383.422 310.363 363.986 295.72 318.998 280.588C254.022 258.735 209.634 228.423 209.634 169.615C209.634 116.188 247.322 74.3897 312.33 61.6088V4H371.855V57.38C412.56 59.1946 439.945 67.6679 459.966 77.3877L442.347 145.994C426.592 139.304 398.623 125.308 354.868 125.308C315.364 125.308 302.612 142.286 302.612 159.296C302.612 179.304 323.881 192.021 375.505 211.477C447.862 236.928 477 270.301 477 324.943Z" fill="url(#paint0_linear_35_24)"/>
<circle cx="75.5" cy="79.5" r="75.5" fill="#D9D9D9"/>
<circle cx="607.5" cy="75.5" r="75.5" fill="#D9D9D9"/>
<path d="M64 585.5C60.4101 585.5 57.5 588.41 57.5 592C57.5 595.59 60.4101 598.5 64 598.5V585.5ZM624.596 456.404C622.058 453.865 617.942 453.865 615.404 456.404L574.038 497.77C571.5 500.308 571.5 504.424 574.038 506.962C576.576 509.5 580.692 509.5 583.23 506.962L620 470.192L656.77 506.962C659.308 509.5 663.424 509.5 665.962 506.962C668.5 504.424 668.5 500.308 665.962 497.77L624.596 456.404ZM64 598.5H560V585.5H64V598.5ZM626.5 532V461H613.5V532H626.5ZM560 598.5C596.727 598.5 626.5 568.727 626.5 532H613.5C613.5 561.547 589.547 585.5 560 585.5V598.5Z" fill="#32CACD"/>
<defs>
<linearGradient id="paint0_linear_35_24" x1="341.5" y1="4" x2="341.5" y2="499" gradientUnits="userSpaceOnUse">
<stop offset="0.3" stop-color="#24BDE3"/>
<stop offset="0.6" stop-color="#E36A5B"/>
</linearGradient>
</defs>
</svg>
